<svg xmlns="http://www.w3.org/2000/svg" width="27.556" height="28" viewBox="0 0 27.556 28"><defs><style>.a{fill:#fff;}</style></defs><path class="a" d="M22.34,3.006a13.776,13.776,0,1,1-16.011.006,1.337,1.337,0,0,1,1.944.428L9.151,5a1.333,1.333,0,0,1-.367,1.722A9.333,9.333,0,1,0,19.89,6.717,1.325,1.325,0,0,1,19.529,5l.878-1.561a1.332,1.332,0,0,1,1.933-.433ZM16.562,14.667V1.333A1.33,1.33,0,0,0,15.229,0H13.451a1.33,1.33,0,0,0-1.333,1.333V14.667A1.33,1.33,0,0,0,13.451,16h1.778A1.33,1.33,0,0,0,16.562,14.667Z" transform="translate(-0.563)"/></svg>